<svg xmlns="http://www.w3.org/2000/svg">
  <defs>
    <symbol id="scroll-down">
      <path d="M12 5v.5m0 3v1.5m0 3v6" />
      <path d="M16 15l-4 4" />
      <path d="M8 15l4 4" />
    </symbol>
    <symbol id="scroll-up">
      <path d="M12 5v6m0 3v1.5m0 3v.5" />
      <path d="M16 9l-4 -4" />
      <path d="M8 9l4 -4" />
    </symbol>
    <symbol id="menu-expand">
      <path d="M4 11l8 3l8 -3" />
    </symbol>
    <symbol id="menu">
      <path d="M7 6h10" />
      <path d="M4 12h16" />
      <path d="M7 12h13" />
      <path d="M7 18h10" />
    </symbol>
    <symbol id="menu-close">
      <path d="M18 6l-12 12" />
      <path d="M6 6l12 12" />
    </symbol>
    <symbol id="location">
      <path d="M9 11a3 3 0 1 0 6 0a3 3 0 0 0 -6 0" />
      <path d="M17.657 16.657l-4.243 4.243a2 2 0 0 1 -2.827 0l-4.244 -4.243a8 8 0 1 1 11.314 0z" />
    </symbol>
    <symbol id="website">
      <path d="M19.5 7a9 9 0 0 0 -7.5 -4a8.991 8.991 0 0 0 -7.484 4" />
      <path d="M11.5 3a16.989 16.989 0 0 0 -1.826 4" />
      <path d="M12.5 3a16.989 16.989 0 0 1 1.828 4" />
      <path d="M19.5 17a9 9 0 0 1 -7.5 4a8.991 8.991 0 0 1 -7.484 -4" />
      <path d="M11.5 21a16.989 16.989 0 0 1 -1.826 -4" />
      <path d="M12.5 21a16.989 16.989 0 0 0 1.828 -4" />
      <path d="M2 10l1 4l1.5 -4l1.5 4l1 -4" />
      <path d="M17 10l1 4l1.5 -4l1.5 4l1 -4" />
      <path d="M9.5 10l1 4l1.5 -4l1.5 4l1 -4" />
    </symbol>
    <symbol id="download">
      <path d="M4 17v2a2 2 0 0 0 2 2h12a2 2 0 0 0 2 -2v-2" />
      <path d="M7 11l5 5l5 -5" />
      <path d="M12 4l0 12" />
    </symbol>
    <symbol id="contact">
      <path d="M20 6v12a2 2 0 0 1 -2 2h-10a2 2 0 0 1 -2 -2v-12a2 2 0 0 1 2 -2h10a2 2 0 0 1 2 2z" />
      <path d="M10 16h6" />
      <path d="M13 11m-2 0a2 2 0 1 0 4 0a2 2 0 1 0 -4 0" />
      <path d="M4 8h3" />
      <path d="M4 12h3" />
      <path d="M4 16h3" />
    </symbol>
    <symbol id="send">
      <path d="M10 14l11 -11" />
      <path d="M21 3l-6.5 18a.55 .55 0 0 1 -1 0l-3.5 -7l-7 -3.5a.55 .55 0 0 1 0 -1l18 -6.5" />
    </symbol>
    <symbol id="next-js">
      <path d="M9 15v-6l7.745 10.65a9 9 0 1 1 2.255 -1.993" />
      <path d="M15 12v-3" />
    </symbol>
    <symbol id="astro">
      <path
        d="M14.972 3.483c.163 .196 .247 .46 .413 .987l3.64 11.53a15.5 15.5 0 0 0 -4.352 -1.42l-2.37 -7.723a.31 .31 0 0 0 -.296 -.213a.31 .31 0 0 0 -.295 .214l-2.342 7.718a15.5 15.5 0 0 0 -4.37 1.422l3.657 -11.53c.168 -.527 .251 -.79 .415 -.986c.144 -.172 .331 -.306 .544 -.388c.242 -.094 .527 -.094 1.099 -.094h2.612c.572 0 .858 0 1.1 .094c.213 .082 .4 .217 .545 .39" />
      <path d="M9 18c0 1.5 2 3 3 4c1 -1 3 -3 3 -4q -3 1.5 -6 0" />
    </symbol>
    <symbol id="react">
      <path d="M6.306 8.711c-2.602 .723 -4.306 1.926 -4.306 3.289c0 2.21 4.477 4 10 4c.773 0 1.526 -.035 2.248 -.102" />
      <path
        d="M17.692 15.289c2.603 -.722 4.308 -1.926 4.308 -3.289c0 -2.21 -4.477 -4 -10 -4c-.773 0 -1.526 .035 -2.25 .102" />
      <path
        d="M6.305 15.287c-.676 2.615 -.485 4.693 .695 5.373c1.913 1.105 5.703 -1.877 8.464 -6.66c.387 -.67 .733 -1.339 1.036 -2" />
      <path
        d="M17.694 8.716c.677 -2.616 .487 -4.696 -.694 -5.376c-1.913 -1.105 -5.703 1.877 -8.464 6.66c-.387 .67 -.733 1.34 -1.037 2" />
      <path
        d="M12 5.424c-1.925 -1.892 -3.82 -2.766 -5 -2.084c-1.913 1.104 -1.226 5.877 1.536 10.66c.386 .67 .793 1.304 1.212 1.896" />
      <path
        d="M12 18.574c1.926 1.893 3.821 2.768 5 2.086c1.913 -1.104 1.226 -5.877 -1.536 -10.66c-.375 -.65 -.78 -1.283 -1.212 -1.897" />
      <path d="M11.5 12.866a1 1 0 1 0 1 -1.732a1 1 0 0 0 -1 1.732z" />
    </symbol>
    <symbol id="typescript">
      <path
        d="M15 17.5c.32 .32 .754 .5 1.207 .5h.543c.69 0 1.25 -.56 1.25 -1.25v-.25a1.5 1.5 0 0 0 -1.5 -1.5a1.5 1.5 0 0 1 -1.5 -1.5v-.25c0 -.69 .56 -1.25 1.25 -1.25h.543c.453 0 .887 .18 1.207 .5" />
      <path d="M9 12h4" />
      <path d="M11 12v6" />
      <path d="M21 19v-14a2 2 0 0 0 -2 -2h-14a2 2 0 0 0 -2 2v14a2 2 0 0 0 2 2h14a2 2 0 0 0 2 -2z" />
    </symbol>
    <symbol id="node-js">
      <path
        d="M9 9v8.044a2 2 0 0 1 -2.996 1.734l-1.568 -.9a3 3 0 0 1 -1.436 -2.561v-6.635a3 3 0 0 1 1.436 -2.56l6 -3.667a3 3 0 0 1 3.128 0l6 3.667a3 3 0 0 1 1.436 2.561v6.634a3 3 0 0 1 -1.436 2.56l-6 3.667a3 3 0 0 1 -3.128 0" />
      <path d="M17 9h-3.5a1.5 1.5 0 0 0 0 3h2a1.5 1.5 0 0 1 0 3h-3.5" />
    </symbol>
    <symbol id="nestjs" viewBox="0 0 48 48">
      <path d="M24.5,32.88c0,0-0.01-0.04-0.02-0.12C24.5,32.84,24.5,32.88,24.5,32.88z" />
      <path
        d="M27.375,8.625c0,0-0.375-1.375,0.125-2.5s0.5-1.875-0.5-3c2-0.125,2.75,1.25,2.75,1.25l0.025,0.159 c0.118,0.766-0.278,1.494-0.946,1.888C28.219,6.781,27.563,7.437,27.375,8.625z" />
      <path
        d="M41.63,36.24c0.02-0.21,0.34-3.04-0.38-4.36c-1.5,4.24-3,8.12-7.37,10.87 c0.62-1.25,1.62-3.25,2.62-6.25c-3,4-9,8-13.5,8.25c3.04-1.68,4.75-3.84,5.5-5.25c0,0-1.75,0.5-3.88,0.75 c2.88-1.75,4.88-4.87,3.88-9.75c-2,6.25-4.75,8.25-8.38,8.62c-3.62,0.38-6.87-1.5-6.87-1.5l1.25-0.12c0,0-3.25-2.5-2.12-5.75 c0.05-0.16,0.11-0.31,0.18-0.45c0.82-1.82,3.61-0.9,3.32,1.07v0.01c0,0,0.87,2.37,3.24,1.74c0.76-1.24,1.26-2.5,1.26-2.5l0.37,1.63 c0,0,1.75-0.75,1.75-2.13c1.5,0.57,1.88,1.28,1.97,1.59c-0.26-1.4-2.52-11.03-14.49-10.89l-2.09,1.94 c-0.14,0.13-0.36,0.02-0.34-0.16L7.71,22l0.14-0.14c-0.04,0.01-0.09,0-0.13,0L7.71,22l-0.82,0.76c-0.14,0.13-0.36,0.02-0.34-0.16 l0.1-1.02c-1.74-0.74-1.9-2.7-1.9-2.7S2.58,18.27,3.5,15.5C4,14,5.2,13.85,5.71,13.97c0.65,0.15,1.32,0.16,1.94-0.09 c0.9-0.36,2.05-1.05,2.85-2.38C12,9,14.25,8,19.12,8c6.45,0,9.05,1.98,9.35,2.22c-0.18-0.21-1.27-1.66,1.03-3.84 c2.27-2.16,1.86-2.67,1.77-2.75c0.34,0.1,4.75,1.6,5.23,7.37c0.5,6-6.5,7.25-6.5,7.25s9,1.75,9.12-6.75 c1.76,1,5.38,4.75,5.88,12.88C45.49,32.26,41.84,36.03,41.63,36.24z" />
      <path d="M7.85,21.86L7.71,22l0.01-0.14C7.76,21.86,7.81,21.87,7.85,21.86z" />
      <path d="M7.85,21.86L7.71,22l0.01-0.14C7.76,21.86,7.81,21.87,7.85,21.86z" />
    </symbol>
    <symbol id="python">
      <path d="M12 9h-7a2 2 0 0 0 -2 2v4a2 2 0 0 0 2 2h3" />
      <path d="M12 15h7a2 2 0 0 0 2 -2v-4a2 2 0 0 0 -2 -2h-3" />
      <path
        d="M8 9v-4a2 2 0 0 1 2 -2h4a2 2 0 0 1 2 2v5a2 2 0 0 1 -2 2h-4a2 2 0 0 0 -2 2v5a2 2 0 0 0 2 2h4a2 2 0 0 0 2 -2v-4" />
      <path d="M11 6l0 .01" />
      <path d="M13 18l0 .01" />
    </symbol>
    <symbol id="tailwindcss">
      <path
        d="M11.667 6c-2.49 0 -4.044 1.222 -4.667 3.667c.933 -1.223 2.023 -1.68 3.267 -1.375c.71 .174 1.217 .68 1.778 1.24c.916 .912 2 1.968 4.288 1.968c2.49 0 4.044 -1.222 4.667 -3.667c-.933 1.223 -2.023 1.68 -3.267 1.375c-.71 -.174 -1.217 -.68 -1.778 -1.24c-.916 -.912 -1.975 -1.968 -4.288 -1.968zm-4 6.5c-2.49 0 -4.044 1.222 -4.667 3.667c.933 -1.223 2.023 -1.68 3.267 -1.375c.71 .174 1.217 .68 1.778 1.24c.916 .912 1.975 1.968 4.288 1.968c2.49 0 4.044 -1.222 4.667 -3.667c-.933 1.223 -2.023 1.68 -3.267 1.375c-.71 -.174 -1.217 -.68 -1.778 -1.24c-.916 -.912 -1.975 -1.968 -4.288 -1.968z" />
    </symbol>
    <symbol id="postgresql" viewBox="0 0 32 32">
      <path
        d="M24.295 9.929c-0.010 0.155-0.082 0.292-0.191 0.387l-0.001 0.001c-0.131 0.143-0.306 0.243-0.504 0.278l-0.005 0.001c-0.028 0.004-0.061 0.007-0.094 0.007h-0c-0.001 0-0.003 0-0.004 0-0.312 0-0.58-0.189-0.694-0.46l-0.002-0.005c-0.030-0.221 0.33-0.388 0.701-0.44s0.764 0.011 0.794 0.231zM14.385 10.443c-0.121 0.311-0.418 0.528-0.766 0.528-0.004 0-0.007-0-0.011-0h0.001c-0 0-0 0-0 0-0.036 0-0.070-0.003-0.105-0.007l0.004 0c-0.261-0.047-0.483-0.191-0.63-0.392l-0.002-0.003c-0.082-0.094-0.132-0.219-0.132-0.354 0-0 0-0.001 0-0.001v0c0.012-0.077 0.055-0.143 0.115-0.185l0.001-0.001c0.152-0.084 0.334-0.133 0.528-0.133 0.083 0 0.164 0.009 0.242 0.026l-0.007-0.001c0.395 0.055 0.803 0.242 0.764 0.523zM25.403 18.086l-0.107-0.134-0.044-0.055c0.457-0.846 0.725-1.853 0.725-2.921 0-0.488-0.056-0.962-0.162-1.418l0.008 0.042c-0.070-0.453-0.111-0.976-0.111-1.508 0-0.007 0-0.014 0-0.021v0.001c0.023-0.501 0.076-0.97 0.158-1.429l-0.010 0.066c0.089-0.464 0.14-0.998 0.14-1.544 0-0.051-0-0.101-0.001-0.151l0 0.008c0.012-0.049 0.019-0.104 0.019-0.162 0-0.027-0.002-0.053-0.004-0.079l0 0.003c-0.4-1.58-1.151-2.949-2.168-4.073l0.007 0.008c-0.911-1.068-2.031-1.929-3.3-2.523l-0.060-0.025c0.696-0.149 1.496-0.234 2.316-0.234 0.075 0 0.15 0.001 0.225 0.002l-0.011-0c0.045-0.001 0.097-0.002 0.15-0.002 2.378 0 4.496 1.109 5.866 2.838l0.012 0.016c0.028 0.036 0.056 0.077 0.080 0.12l0.003 0.005c0.904 1.694-0.345 7.842-3.732 13.172zM25.117 9.322c-0.016 0.455-0.064 0.886-0.14 1.307l0.008-0.055c-0.078 0.425-0.134 0.931-0.157 1.445l-0.001 0.025c-0 0.017-0 0.036-0 0.056 0 0.567 0.042 1.124 0.124 1.668l-0.008-0.061c0.085 0.377 0.134 0.809 0.134 1.254 0 0.763-0.144 1.493-0.407 2.162l0.014-0.040c-0.076-0.131-0.155-0.289-0.224-0.453l-0.011-0.029c-0.066-0.159-0.209-0.416-0.406-0.77-0.769-1.38-2.571-4.611-1.649-5.929 0.474-0.678 1.676-0.707 2.722-0.579zM24.406 20.907c-0.051-1.039 0.336-1.148 0.746-1.263q0.085-0.023 0.169-0.051c0.050 0.044 0.105 0.087 0.162 0.125l0.005 0.003c0.62 0.273 1.342 0.431 2.102 0.431 0.592 0 1.161-0.096 1.693-0.274l-0.038 0.011c-0.344 0.293-0.736 0.544-1.16 0.738l-0.031 0.013c-0.644 0.264-1.391 0.429-2.173 0.454l-0.010 0c-0.119 0.018-0.256 0.029-0.395 0.029-0.386 0-0.754-0.080-1.087-0.224l0.018 0.007zM23.293 22.933c-0.021 0.221-0.045 0.47-0.077 0.745l-0.182 0.548c-0.014 0.040-0.022 0.086-0.023 0.134v0c0.001 0.027 0.001 0.058 0.001 0.089 0 0.355-0.053 0.699-0.151 1.022l0.006-0.025c-0.116 0.389-0.196 0.84-0.223 1.305l-0.001 0.016c-0.052 1.684-1.355 3.047-3.008 3.194l-0.013 0.001c-1.894 0.406-2.23-0.621-2.526-1.527q-0.045-0.142-0.096-0.283c-0.16-0.652-0.252-1.401-0.252-2.171 0-0.36 0.020-0.715 0.059-1.065l-0.004 0.043c0.006-0.128 0.009-0.279 0.009-0.43 0-1.026-0.154-2.016-0.441-2.948l0.019 0.071q0.008-0.55 0.024-1.114c0-0.003 0-0.008 0-0.012 0-0.046-0.007-0.090-0.020-0.132l0.001 0.003c-0.014-0.1-0.033-0.188-0.058-0.273l0.003 0.013c-0.141-0.521-0.496-0.941-0.964-1.164l-0.011-0.005c-0.176-0.088-0.384-0.14-0.605-0.14-0.104 0-0.205 0.011-0.302 0.033l0.009-0.002c0.128-0.47 0.26-0.854 0.412-1.228l-0.026 0.073 0.066-0.177c0.074-0.2 0.167-0.407 0.266-0.626 0.546-1.124 0.865-2.445 0.865-3.841 0-0.938-0.144-1.842-0.411-2.692l0.017 0.063c-0.183-1.108-1.135-1.943-2.281-1.943-0.18 0-0.356 0.021-0.524 0.060l0.016-0.003c-0.796 0.104-1.516 0.338-2.171 0.682l0.035-0.017q-0.124 0.063-0.245 0.13c0.091-2.147 0.896-4.090 2.181-5.615l-0.012 0.014c0.118-0.119 0.242-0.232 0.37-0.338l0.009-0.007c0.069-0.014 0.13-0.042 0.182-0.081l-0.001 0.001c0.893-0.654 2.014-1.047 3.227-1.047 0.097 0 0.193 0.002 0.288 0.007l-0.013-0.001c0.526 0.008 1.034 0.044 1.534 0.108l-0.067-0.007c2.043 0.393 3.787 1.463 5.032 2.963l0.011 0.014c0.748 0.869 1.354 1.887 1.766 2.998l0.022 0.069c-0.257-0.069-0.552-0.109-0.856-0.109-0.983 0-1.868 0.416-2.49 1.081l-0.002 0.002c-1.24 1.773 0.679 5.215 1.601 6.869 0.169 0.303 0.315 0.565 0.361 0.676 0.26 0.601 0.587 1.118 0.98 1.577l-0.007-0.008c0.087 0.109 0.171 0.214 0.236 0.306-0.501 0.144-1.401 0.478-1.319 2.146-0.015 0.195-0.053 0.558-0.104 1.018-0.054 0.269-0.098 0.597-0.123 0.93l-0.002 0.028zM14.091 17.219l-0.066 0.176c-0.137 0.328-0.279 0.745-0.397 1.172l-0.019 0.081c-0.893-0.013-1.695-0.395-2.261-1.001l-0.002-0.002c-0.632-0.667-1.020-1.57-1.020-2.564 0-0.198 0.015-0.392 0.045-0.582l-0.003 0.021c0.097-0.72 0.153-1.551 0.153-2.396 0-0.502-0.020-0.999-0.058-1.491l0.004 0.065c-0.006-0.107-0.012-0.201-0.015-0.275 0.805-0.611 1.824-0.98 2.929-0.98 0.132 0 0.262 0.005 0.391 0.015l-0.017-0.001c0.554 0.129 0.971 0.588 1.037 1.153l0.001 0.006c0.238 0.728 0.375 1.566 0.375 2.435 0 1.266-0.291 2.464-0.809 3.532l0.021-0.048c-0.105 0.233-0.204 0.453-0.289 0.682zM11.474 22.203c-0.205-0.052-0.385-0.128-0.549-0.227l0.009 0.005c0.172-0.073 0.375-0.134 0.585-0.173l0.019-0.003c1.604-0.33 1.851-0.563 2.392-1.25 0.124-0.157 0.264-0.336 0.459-0.553 0.040-0.045 0.072-0.099 0.091-0.159l0.001-0.003c0.213-0.189 0.34-0.137 0.546-0.052 0.227 0.125 0.395 0.336 0.46 0.587l0.001 0.007c0.023 0.065 0.037 0.139 0.037 0.217 0 0.125-0.035 0.242-0.095 0.341l0.002-0.003c-0.645 0.882-1.676 1.449-2.839 1.449-0.4 0-0.785-0.067-1.144-0.191l0.025 0.007zM3.967 15.846c-0.651-1.985-1.181-4.34-1.494-6.764l-0.021-0.199c-0.061-0.322-0.095-0.693-0.095-1.071 0-1.806 0.789-3.427 2.041-4.537l0.006-0.005c2.295-1.623 6.048-0.676 7.633-0.163l-0.012 0.012c-1.535 1.872-2.466 4.292-2.466 6.928 0 0.090 0.001 0.18 0.003 0.27l-0-0.013c-0 0.103 0.008 0.249 0.020 0.449 0.033 0.41 0.052 0.888 0.052 1.371 0 0.802-0.052 1.592-0.154 2.367l0.010-0.091c-0.033 0.206-0.051 0.444-0.051 0.686 0 1.231 0.482 2.35 1.269 3.177l-0.002-0.002q0.151 0.158 0.315 0.297c-0.433 0.464-1.375 1.49-2.377 2.696-0.709 0.853-1.199 0.689-1.36 0.636-0.685-0.368-1.222-0.939-1.538-1.631l-0.009-0.022c-0.684-1.252-1.286-2.708-1.73-4.232l-0.039-0.157zM30.445 19.403c-0.019-0.057-0.043-0.106-0.072-0.151l0.002 0.003c-0.174-0.329-0.596-0.427-1.259-0.29-2.066 0.426-2.866 0.164-3.156-0.024 1.617-2.452 2.918-5.292 3.751-8.326l0.049-0.209c0.339-1.313 0.997-4.403 0.153-5.913-0.059-0.112-0.122-0.208-0.192-0.298l0.003 0.004c-1.563-1.955-3.948-3.196-6.623-3.196-0.076 0-0.152 0.001-0.227 0.003l0.011-0c-0.042-0.001-0.091-0.001-0.141-0.001-1.342 0-2.633 0.22-3.838 0.625l0.085-0.025q-0.321-0.060-0.645-0.102c-0.488-0.093-1.053-0.151-1.631-0.16l-0.008-0c-0.083-0.004-0.18-0.006-0.278-0.006-1.315 0-2.538 0.394-3.557 1.071l0.024-0.015c-1.071-0.401-5.984-2.056-9.025 0.098-1.489 1.27-2.426 3.147-2.426 5.244 0 0.405 0.035 0.802 0.102 1.188l-0.006-0.041c0.335 2.698 0.879 5.126 1.632 7.461l-0.079-0.284c0.493 1.716 1.103 3.201 1.852 4.6l-0.061-0.124c0.433 0.984 1.182 1.764 2.116 2.225l0.026 0.012c0.168 0.049 0.361 0.078 0.561 0.078 0.742 0 1.392-0.391 1.756-0.979l0.005-0.009c1.001-1.204 1.987-2.282 2.43-2.758 0.502 0.279 1.097 0.451 1.731 0.471l0.006 0 0.001 0.005q-0.158 0.188-0.309 0.382c-0.424 0.538-0.512 0.649-1.875 0.93-0.388 0.080-1.418 0.292-1.433 1.014-0 0.004-0 0.008-0 0.013 0 0.147 0.043 0.284 0.117 0.399l-0.002-0.003c0.312 0.395 0.751 0.678 1.254 0.788l0.015 0.003c0.399 0.13 0.859 0.205 1.335 0.205 1.1 0 2.106-0.398 2.884-1.058l-0.006 0.005c-0.024 0.418-0.037 0.908-0.037 1.401 0 1.753 0.171 3.467 0.496 5.125l-0.027-0.167c0.382 1.373 1.616 2.367 3.084 2.38h0.002c0.369-0.003 0.726-0.046 1.070-0.124l-0.033 0.006c1.919-0.171 3.431-1.705 3.567-3.619l0.001-0.012c0.188-1.088 0.502-3.593 0.673-5.125 0.008-0.065 0.034-0.123 0.072-0.171l-0.001 0.001c0.001-0.001 0.087-0.059 0.534 0.038l0.055 0.009 0.317 0.028 0.019 0.001c0.095 0.004 0.207 0.007 0.319 0.007 1.024 0 2.002-0.2 2.895-0.564l-0.051 0.018c0.805-0.373 2.256-1.29 1.993-2.087z" />
    </symbol>
    <symbol id="git-github">
      <path
        d="M9 19c-4.3 1.4 -4.3 -2.5 -6 -3m12 5v-3.5c0 -1 .1 -1.4 -.5 -2c2.8 -.3 5.5 -1.4 5.5 -6a4.6 4.6 0 0 0 -1.3 -3.2a4.2 4.2 0 0 0 -.1 -3.2s-1.1 -.3 -3.5 1.3a12.3 12.3 0 0 0 -6.2 0c-2.4 -1.6 -3.5 -1.3 -3.5 -1.3a4.2 4.2 0 0 0 -.1 3.2a4.6 4.6 0 0 0 -1.3 3.2c0 4.6 2.7 5.7 5.5 6c-.6 .6 -.6 1.2 -.5 2v3.5" />
    </symbol>
    <symbol id="linkedin">
      <path d="M8 11v5" />
      <path d="M8 8v.01" />
      <path d="M12 16v-5" />
      <path d="M16 16v-3a2 2 0 1 0 -4 0" />
      <path d="M3 7a4 4 0 0 1 4 -4h10a4 4 0 0 1 4 4v10a4 4 0 0 1 -4 4h-10a4 4 0 0 1 -4 -4z" />
    </symbol>
    <symbol id="instagram">
      <path d="M4 8a4 4 0 0 1 4 -4h8a4 4 0 0 1 4 4v8a4 4 0 0 1 -4 4h-8a4 4 0 0 1 -4 -4z" />
      <path d="M9 12a3 3 0 1 0 6 0a3 3 0 0 0 -6 0" />
      <path d="M16.5 7.5v.01" />
    </symbol>
    <symbol id="youtube">
      <path d="M2 8a4 4 0 0 1 4 -4h12a4 4 0 0 1 4 4v8a4 4 0 0 1 -4 4h-12a4 4 0 0 1 -4 -4v-8z" />
      <path d="M10 9l5 3l-5 3z" />
    </symbol>
    <symbol id="twitter">
      <path d="M4 4l11.733 16h4.267l-11.733 -16z" />
      <path d="M4 20l6.768 -6.768m2.46 -2.46l6.772 -6.772" />
    </symbol>
    <symbol id="facebook">
      <path d="M7 10v4h3v7h4v-7h3l1 -4h-4v-2a1 1 0 0 1 1 -1h3v-4h-3a5 5 0 0 0 -5 5v2h-3" />
    </symbol>
  </defs>
</svg>
